<svg version="1.1" id="grid" xmlns="http://www.w3.org/2000/svg"> 
    <style type="text/css">
        .line 
        {
            stroke: grey;
            stroke-width: 1;
        }
        .kubus-line
        {
            stroke: green;
        }
    </style>    
    <g class="line">
        <line x1="0" y1="100" x2="1000" y2="100"/>
        <line x1="0" y1="200" x2="1000" y2="200"/>
        <line x1="0" y1="300" x2="1000" y2="300"/>
        <line x1="0" y1="400" x2="1000" y2="400"/>
        <line x1="0" y1="500" x2="1000" y2="500"/>
        <line x1="0" y1="600" x2="1000" y2="600"/>
        <line x1="0" y1="700" x2="1000" y2="700"/>
        <line x1="0" y1="800" x2="1000" y2="800"/>
        <line x1="0" y1="900" x2="1000" y2="900"/>
        <line x1="0" y1="1000" x2="1000" y2="1000"/>
        <line x1="100" y1="0" x2="100" y2="1000"/>
        <line x1="200" y1="0" x2="200" y2="1000"/>
        <line x1="300" y1="0" x2="300" y2="1000"/>
        <line x1="400" y1="0" x2="400" y2="1000"/>
        <line x1="500" y1="0" x2="500" y2="1000"/>
        <line x1="600" y1="0" x2="600" y2="1000"/>
        <line x1="700" y1="0" x2="700" y2="1000"/>
        <line x1="800" y1="0" x2="800" y2="1000"/>
        <line x1="900" y1="0" x2="900" y2="1000"/>
        <line x1="1000" y1="0" x2="1000" y2="1000"/>
    </g> 
</svg>